<svg xmlns="http://www.w3.org/2000/svg">

    <symbol id='and' viewBox="0 0 230 248" fill="none">
        <path
            d="M200.382 247.104L171.654 220.428C148.854 238.212 122.178 247.104 91.626 247.104C74.298 247.104 58.68 244.368 44.772 238.896C30.864 233.196 19.92 225.33 11.94 215.298C4.188 205.266 0.312001 193.98 0.312001 181.44C0.312001 166.62 4.416 153.624 12.624 142.452C21.06 131.052 34.512 120.222 52.98 109.962C44.316 101.07 38.046 92.634 34.17 84.654C30.294 76.446 28.356 68.01 28.356 59.346C28.356 47.718 31.434 37.458 37.59 28.566C43.746 19.674 52.41 12.834 63.582 8.04599C74.982 3.02998 88.092 0.521983 102.912 0.521983C123.66 0.521983 140.304 5.53799 152.844 15.57C165.384 25.374 171.654 38.712 171.654 55.584C171.654 67.896 167.892 78.84 160.368 88.416C153.072 97.992 141.216 107.226 124.8 116.118L168.576 156.816C173.82 145.872 177.81 133.446 180.546 119.538L223.296 132.876C218.736 154.08 211.44 172.206 201.408 187.254L229.452 213.246L200.382 247.104ZM102.912 36.774C94.932 36.774 88.548 38.826 83.76 42.93C79.2 47.034 76.92 52.278 76.92 58.662C76.92 63.45 78.174 68.01 80.682 72.342C83.19 76.446 88.092 82.032 95.388 89.1C107.016 82.944 115.11 77.472 119.67 72.684C124.23 67.668 126.51 62.31 126.51 56.61C126.51 50.682 124.458 45.894 120.354 42.246C116.25 38.598 110.436 36.774 102.912 36.774ZM95.388 205.38C112.032 205.38 126.966 200.706 140.19 191.358L82.392 137.322C71.676 143.478 64.038 149.52 59.478 155.448C54.918 161.376 52.638 168.102 52.638 175.626C52.638 184.518 56.514 191.7 64.266 197.172C72.018 202.644 82.392 205.38 95.388 205.38Z"
            fill="#F2DDFD" />
    </symbol>

    <symbol id='logo' viewBox="0 0 100 100" fill="none">
        <path d="M46.5 53.75L42.7889 46.25H61.143V53.75H46.5Z" fill="black" />
        <path
            d="M66 50C66 41 61 31.5 50 30.75C48 30.75 42.7 30.8 35.5 36L29.5 27C31.5 25 39 21 50 21.5C55.3333 21.1667 67.8 23 75 33C76.6667 35.5 79.9 42.4 79.5 50C79.9 57.6 76.6667 64.5 75 67C67.8 77 55.3333 78.8333 50 78.5C39 79 31.5 75 29.5 73L35 63.5C41.5 69 48 69 50 69C61 68.25 66 59 66 50Z"
            fill="black" />
        <path fill-rule="evenodd" clip-rule="evenodd"
            d="M0 50C-5.03406e-10 22 22 0 50 0C78 5.0386e-10 100 22 100 50C100 78 78 100 50 100C22 100 -5.03406e-10 78 0 50ZM9.5 50C9.5 28 28 9.5 50 9.5C72 9.5 90.5 28 90.5 50C90.5 72 72 90.5 50 90.5C28 90.5 9.5 72 9.5 50Z"
            fill="black" />
    </symbol>

    <symbol id='arrowRight' viewBox="0 0 20 20">
        <g clip-path="url(#clip0_2071_77)">
            <path fill-rule="evenodd" clip-rule="evenodd"
                d="M-0.197998 10C-0.197998 10.6248 0.308533 11.1314 0.93337 11.1314L16.3353 11.1314L10.2667 17.2C9.82485 17.6418 9.82485 18.3581 10.2667 18.8C10.7085 19.2418 11.4248 19.2418 11.8667 18.8L19.8667 10.8C20.3085 10.3582 20.3085 9.64183 19.8667 9.2L11.8667 1.20002C11.4248 0.758197 10.7085 0.758198 10.2667 1.20002C9.82485 1.64185 9.82485 2.35819 10.2667 2.80002L16.3353 8.86863L0.93337 8.86863C0.308533 8.86863 -0.197998 9.37516 -0.197998 10Z"
            />
        </g>
        <defs>
            <clipPath id="clip0_2071_77">
                <rect width="20" height="20" />
            </clipPath>
        </defs>
    </symbol>


</svg>