<svg width="230" height="248" viewBox="0 0 230 248" fill="none" xmlns="http://www.w3.org/2000/svg"><path d="m200.382 247.104-28.728-26.676c-22.8 17.784-49.476 26.676-80.028 26.676-17.328 0-32.946-2.736-46.854-8.208-13.908-5.7-24.852-13.566-32.832-23.598C4.188 205.266.312 193.98.312 181.44c0-14.82 4.104-27.816 12.312-38.988 8.436-11.4 21.888-22.23 40.356-32.49-8.664-8.892-14.934-17.328-18.81-25.308-3.876-8.208-5.814-16.644-5.814-25.308 0-11.628 3.078-21.888 9.234-30.78 6.156-8.892 14.82-15.732 25.992-20.52 11.4-5.016 24.51-7.524 39.33-7.524 20.748 0 37.392 5.016 49.932 15.048 12.54 9.804 18.81 23.142 18.81 40.014 0 12.312-3.762 23.256-11.286 32.832-7.296 9.576-19.152 18.81-35.568 27.702l43.776 40.698c5.244-10.944 9.234-23.37 11.97-37.278l42.75 13.338c-4.56 21.204-11.856 39.33-21.888 54.378l28.044 25.992-29.07 33.858Zm-97.47-210.33c-7.98 0-14.364 2.052-19.152 6.156-4.56 4.104-6.84 9.348-6.84 15.732 0 4.788 1.254 9.348 3.762 13.68 2.508 4.104 7.41 9.69 14.706 16.758 11.628-6.156 19.722-11.628 24.282-16.416 4.56-5.016 6.84-10.374 6.84-16.074 0-5.928-2.052-10.716-6.156-14.364-4.104-3.648-9.918-5.472-17.442-5.472ZM95.388 205.38c16.644 0 31.578-4.674 44.802-14.022l-57.798-54.036c-10.716 6.156-18.354 12.198-22.914 18.126-4.56 5.928-6.84 12.654-6.84 20.178 0 8.892 3.876 16.074 11.628 21.546 7.752 5.472 18.126 8.208 31.122 8.208Z" fill="#F2DDFD"/></svg>