<svg width="20" height="20" viewBox="0 0 20 20" fill="none" xmlns="http://www.w3.org/2000/svg">
<g clip-path="url(#clip0_2071_77)">
<path fill-rule="evenodd" clip-rule="evenodd" d="M-0.197998 10C-0.197998 10.6248 0.308533 11.1314 0.93337 11.1314L16.3353 11.1314L10.2667 17.2C9.82485 17.6418 9.82485 18.3581 10.2667 18.8C10.7085 19.2418 11.4248 19.2418 11.8667 18.8L19.8667 10.8C20.3085 10.3582 20.3085 9.64183 19.8667 9.2L11.8667 1.20002C11.4248 0.758197 10.7085 0.758198 10.2667 1.20002C9.82485 1.64185 9.82485 2.35819 10.2667 2.80002L16.3353 8.86863L0.93337 8.86863C0.308533 8.86863 -0.197998 9.37516 -0.197998 10Z" fill="white"/>
</g>
<defs>
<clipPath id="clip0_2071_77">
<rect width="20" height="20" fill="white"/>
</clipPath>
</defs>
</svg>
