<svg width="164" height="165" viewBox="0 0 164 165" fill="none" xmlns="http://www.w3.org/2000/svg"><path d="m109.449 35.974-.85 12.158-48.631-3.4.85-12.158-32.421-2.267-2.267 32.42 32.42 2.268.85-12.158 28.462 1.99a20.11 20.11 0 0 0-4.996 11.868L80.6 99.115a12.205 12.205 0 0 1-13.008 11.308l-12.157-.85.85-12.158-32.421-2.267-2.267 32.421 32.42 2.267.85-12.158 12.159.851a20.338 20.338 0 0 0 21.68-18.846l2.267-32.421a12.187 12.187 0 0 1 12.995-11.309l4.065.284-.85 12.158 32.421 2.267 2.267-32.42-32.421-2.268ZM51.012 56.323l-16.21-1.134 1.133-16.21 16.21 1.133-1.133 16.21Zm-4.534 64.841-16.21-1.133L31.4 103.82l16.21 1.134-1.133 16.21Zm85.586-59.174-16.21-1.133 1.133-16.21 16.211 1.133-1.134 16.21Z" fill="#F2DDFD"/></svg>