<svg width="164" height="165" viewBox="0 0 164 165" fill="none" xmlns="http://www.w3.org/2000/svg"><path d="M55.712 91.202a1.02 1.02 0 0 0 1.431.1L70.937 79.31l10.14 11.679a1.02 1.02 0 0 0 1.432.1l30.665-26.68a1.02 1.02 0 0 0 .1-1.432l-4.334-4.986a1.02 1.02 0 0 0-1.432-.1L82.602 79.567l-10.14-11.68a1.02 1.02 0 0 0-1.432-.1L51.477 84.784a1.02 1.02 0 0 0-.1 1.431l4.335 4.987Z" fill="#F2DDFD"/><path d="m134.494 41.797-45.085-3.153.566-8.105a1.019 1.019 0 0 0-.942-1.084l-7.092-.496a1.019 1.019 0 0 0-1.084.942l-.567 8.106-45.085-3.153a4.058 4.058 0 0 0-4.336 3.77l-4.605 65.854a4.058 4.058 0 0 0 3.77 4.336l45.135 3.156-.283 4.053-21.828 12.23c-.49.272-.66.883-.39 1.373l3.42 6.246v.013c.27.49.895.661 1.385.389l21.364-11.97 19.49 14.827a1.02 1.02 0 0 0 1.427-.193v-.012l4.256-5.71a1.016 1.016 0 0 0-.194-1.413l-19.865-15.108.286-4.091 45.085 3.153a4.058 4.058 0 0 0 4.336-3.769l4.605-65.855a4.058 4.058 0 0 0-3.769-4.336Zm-9.6 64.487-89.157-6.234 3.896-55.723 89.157 6.234-3.896 55.723Z" fill="#F2DDFD"/></svg>