<svg width="26" height="26" viewBox="0 0 26 26" fill="none" xmlns="http://www.w3.org/2000/svg"><path d="M12.028 4.002c.248-1.018 1.696-1.018 1.944 0l.695 2.864a1 1 0 0 0 1.492.618l2.516-1.533c.895-.546 1.92.479 1.374 1.374L18.516 9.84a1 1 0 0 0 .619 1.492l2.863.695c1.018.248 1.018 1.696 0 1.944l-2.864.695a1 1 0 0 0-.618 1.492l1.534 2.516c.545.895-.48 1.92-1.375 1.374l-2.516-1.533a1 1 0 0 0-1.492.619l-.695 2.863c-.248 1.018-1.696 1.018-1.944 0l-.695-2.864a1 1 0 0 0-1.492-.618L7.325 20.05c-.895.545-1.92-.48-1.374-1.375l1.533-2.516a1 1 0 0 0-.618-1.492l-2.864-.695c-1.018-.248-1.018-1.696 0-1.944l2.864-.695a1 1 0 0 0 .618-1.492L5.95 7.325c-.546-.895.479-1.92 1.374-1.374L9.84 7.484a1 1 0 0 0 1.492-.618l.695-2.864Z" fill="#DCA1F9"/></svg>