<svg width="26" height="26" viewBox="0 0 26 26" fill="none" xmlns="http://www.w3.org/2000/svg">
<path d="M11.4693 5.30448C12.4799 5.10346 13.5201 5.10346 14.5307 5.30448C15.5413 5.5055 16.5024 5.9036 17.3592 6.47605C18.2159 7.04851 18.9515 7.7841 19.5239 8.64084C20.0964 9.49758 20.4945 10.4587 20.6955 11.4693C20.8965 12.4799 20.8965 13.5201 20.6955 14.5307C20.4945 15.5413 20.0964 16.5024 19.5239 17.3592C18.9515 18.2159 18.2159 18.9515 17.3592 19.5239C16.5024 20.0964 15.5413 20.4945 14.5307 20.6955C13.5201 20.8965 12.4799 20.8965 11.4693 20.6955C10.4587 20.4945 9.49758 20.0964 8.64084 19.5239C7.7841 18.9515 7.04851 18.2159 6.47605 17.3592C5.9036 16.5024 5.5055 15.5413 5.30448 14.5307C5.10346 13.5201 5.10346 12.4799 5.30448 11.4693C5.5055 10.4587 5.9036 9.49758 6.47605 8.64084C7.04851 7.7841 7.7841 7.04851 8.64084 6.47605C9.49758 5.9036 10.4587 5.5055 11.4693 5.30448Z" fill="#969696" fill-opacity="0.3"/>
</svg>
